<svg width="145" height="48" viewBox="0 0 145 48" fill="none" xmlns="http://www.w3.org/2000/svg">
<rect width="124" height="48" fill="#C40B0B"/>
<path d="M21.3492 26.5879H25.0816V28H19.5914V19.4688H21.3492V26.5879ZM31.3781 24.3027H28.0031V26.5879H31.9641V28H26.2453V19.4688H31.9523V20.8926H28.0031V22.9258H31.3781V24.3027ZM37.9617 26.2422H34.8797L34.2938 28H32.4246L35.6004 19.4688H37.2293L40.4227 28H38.5535L37.9617 26.2422ZM35.3543 24.8184H37.4871L36.4148 21.625L35.3543 24.8184ZM44.5277 24.877H43.1273V28H41.3695V19.4688H44.5395C45.5473 19.4688 46.3246 19.6934 46.8715 20.1426C47.4184 20.5918 47.6918 21.2266 47.6918 22.0469C47.6918 22.6289 47.5648 23.1152 47.3109 23.5059C47.0609 23.8926 46.6801 24.2012 46.1684 24.4316L48.0141 27.918V28H46.1273L44.5277 24.877ZM43.1273 23.4531H44.5453C44.9867 23.4531 45.3285 23.3418 45.5707 23.1191C45.8129 22.8926 45.934 22.582 45.934 22.1875C45.934 21.7852 45.8187 21.4688 45.5883 21.2383C45.3617 21.0078 45.0121 20.8926 44.5395 20.8926H43.1273V23.4531ZM56.1211 28H54.3633L50.9414 22.3867V28H49.1836V19.4688H50.9414L54.3691 25.0938V19.4688H56.1211V28ZM63.2414 19.4688L65.4328 25.6562L67.6125 19.4688H69.9211V28H68.1574V25.668L68.3332 21.6426L66.0305 28H64.8234L62.5266 21.6484L62.7023 25.668V28H60.9445V19.4688H63.2414ZM78.6141 23.9277C78.6141 24.7676 78.4656 25.5039 78.1687 26.1367C77.8719 26.7695 77.4461 27.2578 76.8914 27.6016C76.3406 27.9453 75.7078 28.1172 74.993 28.1172C74.2859 28.1172 73.6551 27.9473 73.1004 27.6074C72.5457 27.2676 72.116 26.7832 71.8113 26.1543C71.5066 25.5215 71.3523 24.7949 71.3484 23.9746V23.5527C71.3484 22.7129 71.4988 21.9746 71.7996 21.3379C72.1043 20.6973 72.532 20.207 73.0828 19.8672C73.6375 19.5234 74.2703 19.3516 74.9812 19.3516C75.6922 19.3516 76.323 19.5234 76.8738 19.8672C77.4285 20.207 77.8562 20.6973 78.157 21.3379C78.4617 21.9746 78.6141 22.7109 78.6141 23.5469V23.9277ZM76.8328 23.541C76.8328 22.6465 76.6727 21.9668 76.3523 21.502C76.032 21.0371 75.575 20.8047 74.9812 20.8047C74.3914 20.8047 73.9363 21.0352 73.616 21.4961C73.2957 21.9531 73.1336 22.625 73.1297 23.5117V23.9277C73.1297 24.7988 73.2898 25.4746 73.6102 25.9551C73.9305 26.4355 74.3914 26.6758 74.993 26.6758C75.5828 26.6758 76.0359 26.4453 76.3523 25.9844C76.6687 25.5195 76.8289 24.8438 76.8328 23.957V23.541ZM83.1996 24.877H81.7992V28H80.0414V19.4688H83.2113C84.2191 19.4688 84.9965 19.6934 85.5434 20.1426C86.0902 20.5918 86.3637 21.2266 86.3637 22.0469C86.3637 22.6289 86.2367 23.1152 85.9828 23.5059C85.7328 23.8926 85.352 24.2012 84.8402 24.4316L86.6859 27.918V28H84.7992L83.1996 24.877ZM81.7992 23.4531H83.2172C83.6586 23.4531 84.0004 23.3418 84.2426 23.1191C84.4848 22.8926 84.6059 22.582 84.6059 22.1875C84.6059 21.7852 84.4906 21.4688 84.2602 21.2383C84.0336 21.0078 83.684 20.8926 83.2113 20.8926H81.7992V23.4531ZM92.9883 24.3027H89.6133V26.5879H93.5742V28H87.8555V19.4688H93.5625V20.8926H89.6133V22.9258H92.9883V24.3027Z" fill="white"/>
<path d="M145 48H102L118.7 0H145V48Z" fill="#E30B0B"/>
<path d="M129 29.9333L128.06 28.9933L131.78 25.2667H123.667V23.9334H131.78L128.06 20.2067L129 19.2667L134.333 24.6L129 29.9333Z" fill="white"/>
</svg>
