<svg width="76" height="77" viewBox="0 0 76 77" fill="none" xmlns="http://www.w3.org/2000/svg">
<g clip-path="url(#clip0)">
<path d="M17.1672 56.7256H19.6186V59.1734H17.1672V56.7256Z" fill="white"/>
<path d="M71.0004 9.59584L48.7381 0.699214C46.574 -0.10278 44.3027 0.978298 43.5097 2.96954L41.9543 6.84325C41.7729 7.3303 41.6808 7.82214 41.6808 8.30799C41.6808 9.11477 41.9333 9.89704 42.3768 10.558L38.7931 18.7847H37.2095L33.6282 10.5616C34.0741 9.89943 34.3266 9.11596 34.3266 8.30799C34.3266 7.82333 34.2345 7.3303 34.0424 6.81158L32.4995 2.97193C31.7035 0.974712 29.534 -0.146405 27.24 0.708776L5.00947 9.59465C3.46 10.209 2.45874 11.6839 2.45874 13.3506C2.45874 13.8353 2.55091 14.3283 2.74302 14.8476L4.2865 18.6867C4.86822 20.1485 6.22019 21.1088 7.77445 21.2128L18.975 46.9346H15.9413C13.9143 46.9346 12.2642 48.5822 12.2642 50.6063C12.2642 51.5989 12.6527 52.5216 13.3355 53.1862C13.5636 53.4204 13.8245 53.6039 14.0992 53.7652C12.9914 54.9073 12.3014 56.4581 12.3014 58.1702C12.3014 58.6447 12.3516 59.0965 12.4528 59.5483L16.1843 76.3083H54.9048L60.2253 54.1656C65.0167 53.5119 68.6459 49.4314 68.6459 44.4867C68.6459 40.2927 65.9653 36.621 62.1165 35.2662L68.233 21.2128C69.7872 21.1088 71.1404 20.1485 71.7215 18.6903L73.2764 14.8172C73.4565 14.3283 73.5487 13.8365 73.5487 13.3506C73.5487 11.6839 72.5474 10.209 71.0004 9.59584V9.59584ZM42.3672 16.7212L46.1077 18.2965L47.0605 16.0411L43.3452 14.4753L44.3727 12.1196L65.7912 20.6791L64.599 23.4198L49.3377 17.0062L48.388 19.2634L63.6217 25.6644L62.4181 28.4289L47.7919 22.2849C47.7003 20.3415 46.1006 18.7847 44.1322 18.7847H41.4677L42.3672 16.7212ZM29.4472 48.9527C30.8178 46.9226 33.0998 45.7107 35.5523 45.7107C38.0049 45.7107 40.2875 46.9226 41.6574 48.9527C42.475 50.1611 42.9065 51.5792 42.9065 53.0541C42.9065 54.529 42.475 55.9477 41.6574 57.1555C40.2875 59.1862 38.0049 60.3975 35.5523 60.3975C31.4964 60.3975 28.1982 57.1041 28.1982 53.0541C28.1982 51.5792 28.6297 50.1611 29.4472 48.9527V48.9527ZM31.8753 43.2628C30.4401 43.2628 29.1701 42.4591 28.5561 41.1539C28.5034 41.0451 28.4789 40.928 28.437 40.815H42.6784C42.1745 42.2433 40.8279 43.2628 39.2306 43.2628H31.8753ZM18.8757 40.5676L23.5947 38.5889C24.01 39.5535 24.8347 40.2915 25.8438 40.6196C25.8671 40.7529 25.8893 40.8873 25.921 41.0182L20.1331 43.4553L18.8757 40.5676ZM44.1322 21.2325C44.8078 21.2325 45.3578 21.7823 45.3578 22.4564V28.576H34.3266C32.2996 28.576 30.6496 30.2236 30.6496 32.2477C30.6496 33.2403 31.038 34.163 31.7209 34.8276C32.4085 35.5315 33.3326 35.9194 34.3266 35.9194H45.3578V37.1433C45.3578 37.818 44.8078 38.3672 44.1322 38.3672H26.9725C26.2974 38.3672 25.7468 37.818 25.7468 37.1433V30.9503C25.7468 30.3778 25.8779 29.8172 26.1316 29.3188L29.1582 23.2632C29.7806 22.0291 31.0739 21.2325 32.4516 21.2325H44.1322ZM49.3551 46.9346H43.1907C42.6886 46.3095 42.1183 45.7561 41.4911 45.2786C43.171 44.6176 44.4655 43.2383 45.0245 41.5471L49.1169 43.2664C49.0642 43.6692 49.0349 44.0744 49.0349 44.4867C49.0349 45.324 49.1504 46.1403 49.3551 46.9346V46.9346ZM45.3578 33.4716H34.3266C33.9993 33.4716 33.6976 33.3467 33.4541 33.0975C33.226 32.8758 33.101 32.5746 33.101 32.2477C33.101 31.5736 33.6516 31.0238 34.3266 31.0238H45.3578V33.4716ZM23.9436 28.2174C23.6216 28.8503 23.4157 29.5489 23.3361 30.2678L15.7719 33.4399L14.5684 30.6754L24.8826 26.3385L23.9436 28.2174ZM23.2954 32.9391V36.0616L17.8989 38.3248L16.7493 35.6845L23.2954 32.9391ZM44.6199 49.3824H50.3671C50.9297 50.3481 51.6455 51.2087 52.4941 51.9246L50.6442 56.7258H44.6199C45.0909 55.567 45.3578 54.3306 45.3578 53.0541C45.3578 51.7776 45.0909 50.5417 44.6199 49.3824ZM49.7483 40.8766L46.8104 39.6425C47.4256 38.9851 47.8092 38.1102 47.8092 37.1433V36.6503L51.3893 38.158C50.6981 38.9684 50.1415 39.8839 49.7483 40.8766ZM53.4325 36.3616L47.8092 33.9933V30.872L57.2215 34.8276C55.8546 35.0517 54.5822 35.5901 53.4325 36.3616ZM60.2379 33.4399L47.8092 28.2162V24.9485L61.4414 30.6766L60.2379 33.4399ZM32.4516 18.7847C30.1558 18.7847 28.0031 20.1102 26.9653 22.1702L26.5632 22.9757L13.5905 28.4289L12.3869 25.6656L33.6414 16.7212L34.5409 18.7847H32.4516ZM6.56252 17.7777L5.03041 13.965C4.95201 13.7546 4.91012 13.5419 4.91012 13.3506C4.91012 12.6921 5.30511 12.1106 5.91796 11.8674L28.1222 2.99404C29.0612 2.64623 29.9093 3.09085 30.2229 3.88149L31.755 7.69365C31.8334 7.90401 31.8753 8.11735 31.8753 8.30799C31.8753 8.75261 31.6963 9.16616 31.363 9.47692C31.2283 9.60541 31.0506 9.71835 30.8704 9.79126L27.7326 11.0397L28.6393 13.313L31.6377 12.1207L32.6695 14.4903L11.409 23.4222L10.2162 20.6821L26.2017 14.2919L25.2908 12.0204L8.64823 18.6712C8.55187 18.7088 8.44774 18.7369 8.40106 18.7483C7.62902 18.8546 6.8492 18.4985 6.56252 17.7777ZM21.1104 45.7011L26.9701 43.2336C27.6518 44.1599 28.5657 44.8603 29.619 45.2738C28.99 45.7525 28.4178 46.3071 27.9139 46.9346H21.6472L21.1104 45.7011ZM52.9705 73.8605H18.1503L14.8443 59.0147C14.7821 58.738 14.7509 58.4613 14.7509 58.1702C14.7509 56.0248 16.5003 54.278 18.6488 54.278C20.23 54.278 21.6418 55.2168 22.2487 56.6708L27.3807 68.9649H34.5523C35.0598 70.386 36.4082 71.4127 38.0037 71.4127C40.0308 71.4127 41.6808 69.7657 41.6808 67.741C41.6808 67.5892 41.6538 67.444 41.6353 67.2969L45.9061 65.1647L44.809 62.975L40.5485 65.1025C39.8877 64.4661 38.993 64.0693 38.0037 64.0693C36.4082 64.0693 35.0598 65.0959 34.5523 66.5171H29.0145L24.5128 55.7284C23.5247 53.3601 21.2241 51.8302 18.65 51.8302H15.9413C15.6139 51.8302 15.3123 51.7053 15.0687 51.4561C14.8407 51.2344 14.7156 50.9332 14.7156 50.6063C14.7156 49.9322 15.2662 49.3824 15.9413 49.3824H26.4848C26.0143 50.5417 25.7468 51.7776 25.7468 53.0541C25.7468 58.4529 30.1457 62.8453 35.5523 62.8453C38.5453 62.8453 41.3378 61.4798 43.1907 59.1736H52.3284L58.218 43.8796C58.3634 43.5055 58.7141 43.2628 59.1103 43.2628C59.637 43.2628 60.0661 43.6913 60.0661 44.2298C60.0661 44.274 60.0613 44.3499 60.0392 44.4455L52.9705 73.8605ZM36.778 67.741C36.778 67.0669 37.3286 66.5171 38.0037 66.5171C38.6794 66.5171 39.2294 67.0669 39.2294 67.741C39.2294 68.4157 38.6794 68.9649 38.0037 68.9649C37.3286 68.9649 36.778 68.4157 36.778 67.741ZM66.1946 44.4867C66.1946 47.8513 63.9526 50.6774 60.8555 51.538L62.4253 45.0043C62.487 44.7377 62.5175 44.4772 62.5175 44.2178C62.5175 42.3413 60.989 40.815 59.1103 40.815C57.6979 40.815 56.4519 41.6684 55.9306 42.9951L53.4439 49.4547C52.9412 48.915 52.5109 48.3079 52.1901 47.6362C51.7227 46.6483 51.4863 45.5881 51.4863 44.4867C51.4863 43.9065 51.5551 43.3447 51.6982 42.7614C52.0806 41.1527 53.0064 39.7136 54.3177 38.7037C55.611 37.6829 57.1748 37.1433 58.8404 37.1433C59.3396 37.1433 59.7902 37.1875 60.2403 37.2808C63.6905 37.9411 66.1946 40.9728 66.1946 44.4867V44.4867ZM70.9896 13.9357L69.4437 17.7825C69.2013 18.3909 68.619 18.7847 67.9595 18.7847C67.8446 18.7847 67.7207 18.7638 67.6716 18.759C67.5603 18.7369 67.4556 18.7076 67.3736 18.6771L45.146 9.79425C44.9581 9.71835 44.7803 9.60541 44.6445 9.47692L44.6385 9.47094C44.3111 9.16616 44.1322 8.75261 44.1322 8.30799C44.1322 8.11735 44.174 7.90401 44.2399 7.72293L45.7858 3.87671C46.0281 3.26834 46.6105 2.87392 47.27 2.87392C47.4609 2.87392 47.6746 2.91575 47.8571 2.98149L70.0937 11.8686C70.7029 12.1106 71.0973 12.6921 71.0973 13.3506C71.0973 13.5419 71.0554 13.7546 70.9896 13.9357Z" fill="white"/>
<path d="M38.0033 53.0533C38.0033 53.4107 37.9225 53.7549 37.7544 54.1075L39.9694 55.1575C40.2919 54.4792 40.4547 53.7717 40.4547 53.0533C40.4547 50.3533 38.2559 48.1577 35.552 48.1577C34.8326 48.1577 34.124 48.3209 33.4453 48.6424L34.4968 50.8541C36.1834 50.0521 38.0033 51.346 38.0033 53.0533Z" fill="white"/>
<path d="M35.5519 57.9494C36.2713 57.9494 36.9799 57.7869 37.6592 57.4647L36.607 55.253C34.9205 56.0538 33.1005 54.76 33.1005 53.0538C33.1005 52.6964 33.1813 52.3528 33.3495 52.0002L31.1345 50.9502C30.812 51.6279 30.6492 52.3355 30.6492 53.0538C30.6492 55.7538 32.848 57.9494 35.5519 57.9494Z" fill="white"/>
<path d="M40.4546 23.6802H42.906V26.128H40.4546V23.6802Z" fill="white"/>
<path d="M35.5522 23.6802H38.0036V26.128H35.5522V23.6802Z" fill="white"/>
<path d="M30.6492 23.6802H33.1006V26.128H30.6492V23.6802Z" fill="white"/>
</g>
<defs>
<clipPath id="clip0">
<rect width="76" height="75.8895" fill="white" transform="translate(0 0.418457)"/>
</clipPath>
</defs>
</svg>
