<svg width="76" height="77" viewBox="0 0 76 77" fill="none" xmlns="http://www.w3.org/2000/svg">
<g clip-path="url(#clip0)">
<path d="M56.3871 10.2107H30.6451V7.7626H31.8709C32.5491 7.7626 33.0967 7.21394 33.0967 6.53858V1.64248C33.0967 0.967116 32.5491 0.418457 31.8709 0.418457H14.7096C14.0315 0.418457 13.4838 0.967116 13.4838 1.64248V6.53858C13.4838 7.21394 14.0315 7.7626 14.7096 7.7626H15.9355V11.0492C13.0415 12.4274 11.0322 15.3697 11.0322 18.7788V67.7398C11.0322 72.4632 14.8826 76.308 19.6129 76.308H56.3871C61.1173 76.308 64.9677 72.4632 64.9677 67.7398V18.7788C64.9677 14.0543 61.1173 10.2107 56.3871 10.2107ZM62.5161 18.7788V37.8564L57.6129 32.9603V21.2269C57.6129 19.2026 55.9627 17.5548 53.9354 17.5548H42.1849L37.2817 12.6587H56.3871C59.7664 12.6587 62.5161 15.4044 62.5161 18.7788ZM55.1613 30.5122L44.6366 20.0028H53.9354C54.6118 20.0028 55.1613 20.5527 55.1613 21.2269V30.5122ZM15.9355 2.86651H30.6451V5.31455H15.9355V2.86651ZM18.3871 7.7626H28.1935V10.2107H19.6129C19.1963 10.2107 18.7893 10.2513 18.3871 10.3087V7.7626ZM56.3871 73.8599H19.6129C16.2335 73.8599 13.4838 71.1142 13.4838 67.7398V18.7788C13.4838 15.4044 16.2335 12.6587 19.6129 12.6587H33.815L62.5161 41.3181V67.7398C62.5161 71.1142 59.7664 73.8599 56.3871 73.8599Z" fill="white"/>
<path d="M32.7375 15.4655C32.5082 15.2354 32.197 15.1069 31.8708 15.1069H20.8385C18.1343 15.1069 15.9353 17.3028 15.9353 20.003V66.5159C15.9353 69.2162 18.1343 71.412 20.8385 71.412H55.1611C57.8653 71.412 60.0643 69.2162 60.0643 66.5159V43.2595C60.0643 42.9338 59.9357 42.623 59.7052 42.3941L32.7375 15.4655ZM57.6127 66.5159C57.6127 67.8661 56.5132 68.964 55.1611 68.964H20.8385C19.4864 68.964 18.3869 67.8661 18.3869 66.5159V20.003C18.3869 18.6529 19.4864 17.555 20.8385 17.555H31.3632L57.6127 43.7663V66.5159Z" fill="white"/>
<path d="M28.1938 55.1911C28.1938 59.7101 31.4373 63.5011 35.7372 64.0067C36.0772 64.0456 36.4178 64.0665 36.7547 64.0665C38.8574 64.0665 40.8978 63.3039 42.4732 61.9047C44.3059 60.2791 45.3551 57.9452 45.3551 55.4995V55.1911C45.3551 52.7849 44.7458 50.3978 43.5924 48.2875L37.8507 37.7769C37.4215 36.9897 36.1275 36.9897 35.6983 37.7769L29.9565 48.2863C28.8032 50.3978 28.1938 52.7849 28.1938 55.1911ZM32.1089 49.4589L36.7745 40.92L41.4401 49.4613C42.3972 51.2119 42.9035 53.1937 42.9035 55.1911V55.4995C42.9035 57.2459 42.1536 58.9134 40.844 60.0747C39.5188 61.2515 37.804 61.7834 36.0245 61.5754C33.0091 61.2204 30.6455 58.4161 30.6455 55.1911C30.6455 53.1937 31.1518 51.2119 32.1089 49.4589V49.4589Z" fill="white"/>
<path d="M41.6772 55.4995H39.2255C39.2255 56.8496 38.126 57.9476 36.7739 57.9476V60.3956C39.4781 60.3956 41.6772 58.1998 41.6772 55.4995Z" fill="white"/>
</g>
<defs>
<clipPath id="clip0">
<rect width="76" height="75.8895" fill="white" transform="translate(0 0.418457)"/>
</clipPath>
</defs>
</svg>
