<svg width="76" height="77" viewBox="0 0 76 77" fill="none" xmlns="http://www.w3.org/2000/svg">
<g clip-path="url(#clip0)">
<path d="M64.9679 32.2431H41.6776V29.795H43.5971L49.6674 19.6921C50.8549 17.715 51.484 15.4504 51.484 13.1446C51.484 6.12738 45.7668 0.418457 38.7393 0.418457H37.2621C30.2335 0.418457 24.5163 6.12738 24.5163 13.1446C24.5163 15.4504 25.1453 17.715 26.3316 19.6933L32.4032 29.795H34.3227V32.2431H11.0324C9.00515 32.2431 7.35498 33.8909 7.35498 35.9152V72.6359C7.35498 74.6602 9.00515 76.308 11.0324 76.308H64.9679C66.9951 76.308 68.6453 74.6602 68.6453 72.6359V35.9152C68.6453 33.8909 66.9951 32.2431 64.9679 32.2431ZM44.1292 73.8599H39.2259V61.6197H46.5808V54.2755H51.484V44.4833H41.6776V39.5872H61.2905V51.8275H56.3872V59.1716H51.484V66.5158H44.1292V73.8599ZM49.0324 13.1446C49.0324 13.9658 48.9169 14.7762 48.7247 15.567C44.5254 13.9425 41.6776 9.88373 41.6776 5.31455V3.29862C45.9248 4.56568 49.0324 8.49714 49.0324 13.1446ZM34.3227 3.29862V5.31455C34.3227 9.88373 31.4749 13.9425 27.2755 15.567C27.0834 14.7762 26.9679 13.9658 26.9679 13.1446C26.9679 8.49714 30.0755 4.56568 34.3227 3.29862ZM28.4337 18.4334C28.3224 18.2475 28.2392 18.0491 28.1398 17.8584C33.2855 15.8753 36.7743 10.9081 36.7743 5.31455V2.89101C36.9371 2.88384 37.0969 2.86651 37.2609 2.86651H38.7381C38.9033 2.86651 39.0631 2.88384 39.2259 2.89101V5.31455C39.2259 10.9081 42.7148 15.8753 47.8605 17.8572C47.7611 18.0479 47.6779 18.2463 47.5666 18.4322L42.2097 27.347H33.7918L28.4337 18.4334ZM39.2259 29.795V44.4833H36.7743V29.795H39.2259ZM34.3227 44.4833H29.4195V39.5872H34.3227V44.4833ZM9.80659 72.6359V35.9152C9.80659 35.241 10.3561 34.6911 11.0324 34.6911H34.3227V37.1392H26.9679V46.9314H49.0324V51.8275H44.1292V59.1716H36.7743V73.8599H11.0324C10.3561 73.8599 9.80659 73.3113 9.80659 72.6359ZM66.1937 72.6359C66.1937 73.3113 65.6442 73.8599 64.9679 73.8599H46.5808V68.9638H53.9356V61.6197H58.8388V54.2755H63.7421V37.1392H41.6776V34.6911H64.9679C65.6442 34.6911 66.1937 35.241 66.1937 35.9152V72.6359Z" fill="white"/>
<path d="M12.2581 46.9314H24.5161V37.1392H12.2581V46.9314ZM14.7097 39.5872H22.0645V44.4833H14.7097V39.5872Z" fill="white"/>
<path d="M12.2581 71.4118H22.0645V49.3794H12.2581V71.4118ZM14.7097 68.9638V66.5157H19.6129V68.9638H14.7097ZM19.6129 61.6196V64.0677H14.7097V61.6196H19.6129ZM14.7097 59.1716V56.7235H19.6129V59.1716H14.7097ZM19.6129 51.8274V54.2755H14.7097V51.8274H19.6129Z" fill="white"/>
</g>
<defs>
<clipPath id="clip0">
<rect width="76" height="75.8895" fill="white" transform="translate(0 0.418457)"/>
</clipPath>
</defs>
</svg>
