<svg width="76" height="77" viewBox="0 0 76 77" fill="none" xmlns="http://www.w3.org/2000/svg">
<path d="M45.1428 43.4937L45.5561 41.1577L50.2349 41.983L49.8216 44.319L45.1428 43.4937Z" fill="white"/>
<path d="M61.891 61.991L63.1082 61.5487L62.2959 59.3207L61.0835 59.7618C60.8621 59.3728 60.6045 59.0056 60.314 58.6649L61.1452 57.6772L59.3236 56.1499L58.4924 57.1412C58.1071 56.9148 57.7011 56.7254 57.2799 56.5756L57.5044 55.3021L55.1662 54.8906L54.9417 56.1618C54.4937 56.1595 54.0464 56.1992 53.6058 56.2804L53.1652 55.0697L50.9339 55.8796L51.3733 57.089C51.1793 57.1981 50.9897 57.3167 50.8045 57.4448C50.6204 57.574 50.4684 57.7341 50.2986 57.8776L49.2881 57.0298L47.7609 58.8452L48.7596 59.6835C48.533 60.0678 48.3437 60.4728 48.1944 60.893L46.9059 60.6642L46.4927 63.0001L47.7692 63.2242C47.7667 63.6709 47.8065 64.1167 47.888 64.5559L46.672 64.9982L47.4831 67.2262L48.6955 66.7851C48.9176 67.174 49.1752 67.5416 49.465 67.8831L48.6337 68.8697L50.4518 70.3946L51.2831 69.4033C51.6684 69.6297 52.0743 69.8191 52.4955 69.9689L52.2711 71.2424L54.6092 71.6527L54.8408 70.3792C54.8622 70.3792 54.8835 70.3851 54.9049 70.3851C55.3314 70.381 55.7567 70.3385 56.1755 70.2582L56.6185 71.4737L58.8498 70.6638L58.4033 69.4377C58.5957 69.3274 58.7928 69.2254 58.978 69.0962C59.1633 68.9669 59.3141 68.808 59.4839 68.6646L60.4957 69.5124L62.0216 67.6958L61.0229 66.8574C61.2487 66.4742 61.4376 66.0704 61.587 65.6515L62.8707 65.878L63.2839 63.542L62.0085 63.3179C62.0118 62.8729 61.9724 62.4286 61.891 61.991V61.991ZM54.8847 58.5286C55.1634 58.5292 55.4415 58.5538 55.716 58.6021C56.9134 58.8157 57.9821 59.4825 58.6994 60.4634C59.4167 61.4443 59.7274 62.6638 59.5666 63.8678C59.4058 65.0717 58.786 66.1673 57.8363 66.9262C56.8866 67.6852 55.6803 68.049 54.4687 67.9418C53.257 67.8347 52.1335 67.2648 51.3322 66.351C50.5309 65.4372 50.1136 64.2499 50.1672 63.0365C50.2209 61.823 50.7413 60.677 51.6201 59.8373C52.4989 58.9975 53.6684 58.5287 54.8847 58.5286Z" fill="white"/>
<path d="M53.5383 64.2339L53.9516 61.8979L56.2909 62.3106L55.8777 64.6465L53.5383 64.2339Z" fill="white"/>
<path d="M71.6063 43.3993C70.9826 42.5042 70.1872 41.7416 69.2663 41.1556C68.3453 40.5696 67.3171 40.1719 66.2412 39.9854L62.1883 39.274L54.8626 22.602C54.4706 21.7078 53.8632 20.9242 53.0945 20.3212C52.3259 19.7181 51.4198 19.3142 50.457 19.1454L20.2137 13.8178C18.6634 13.5471 17.0688 13.9012 15.7795 14.8025C14.4902 15.7038 13.6114 17.0788 13.3357 18.6261L8.18195 47.8246C8.1006 48.2846 8.1108 48.7562 8.21197 49.2123C8.31314 49.6685 8.5033 50.1002 8.77159 50.483C9.03988 50.8657 9.38105 51.192 9.77561 51.443C10.1702 51.6941 10.6104 51.8651 11.0711 51.9463L12.0532 52.1182C12.2806 52.1581 12.5148 52.1309 12.727 52.0399C12.9391 51.9489 13.1201 51.7981 13.2478 51.606C14.397 49.8763 16.0266 48.5191 17.9369 47.7007C19.8473 46.8823 21.9552 46.6384 24.0024 46.9988C26.0495 47.3592 27.9468 48.3083 29.4617 49.7297C30.9765 51.1511 32.043 52.983 32.5305 55.0009C32.5848 55.2254 32.7037 55.4292 32.8725 55.5872C33.0413 55.7451 33.2526 55.8505 33.4805 55.8902L37.6925 56.6325L34.5373 63.9843C34.474 64.1319 34.4413 64.2909 34.4413 64.4515C34.4413 64.6121 34.474 64.771 34.5373 64.9187L37.3873 71.5649H32.0626V73.9365H46.3126V71.5649H40.9878L43.8378 64.9175C43.9012 64.7699 43.9339 64.6109 43.9339 64.4503C43.9339 64.2897 43.9012 64.1307 43.8378 63.9831L40.9273 57.2028L44.795 57.8835C45.0225 57.9247 45.2571 57.8981 45.4695 57.807C45.682 57.7159 45.8629 57.5644 45.9896 57.3712C47.1385 55.6414 48.7681 54.2841 50.6783 53.4656C52.5886 52.6471 54.6966 52.4032 56.7437 52.7636C58.7908 53.124 60.688 54.0732 62.2028 55.4947C63.7175 56.9162 64.7839 58.7482 65.271 60.7661C65.3252 60.9908 65.444 61.1949 65.6128 61.3531C65.7816 61.5113 65.993 61.6168 66.221 61.6566L67.2031 61.8297C67.4078 61.865 67.6152 61.8828 67.823 61.8831C68.6602 61.8827 69.4706 61.5879 70.1118 61.0503C70.7531 60.5128 71.1842 59.7669 71.3297 58.9436L72.9791 49.602C73.1725 48.5289 73.1508 47.428 72.9152 46.3633C72.6795 45.2985 72.2347 44.2911 71.6063 43.3993V43.3993ZM37.4253 63.2645L39.1876 59.1606L40.9498 63.2645H37.4253ZM40.9498 65.6361L39.1876 69.74L37.4253 65.6361H40.9498ZM52.6859 23.5553L59.3751 38.7771L44.0183 36.0735L46.6985 20.8956L50.0437 21.4885C50.6206 21.5888 51.1637 21.83 51.6247 22.1906C52.0857 22.5512 52.4502 23.02 52.6859 23.5553V23.5553ZM15.6751 19.0423C15.7562 18.5821 15.9274 18.1424 16.1788 17.7483C16.4302 17.3541 16.7569 17.0133 17.1402 16.7453C17.5235 16.4773 17.9559 16.2873 18.4128 16.1862C18.8697 16.0851 19.342 16.0749 19.8028 16.1561L44.3627 20.4806L41.6813 35.6621L13.6124 30.7198L15.6751 19.0423ZM12.375 37.7265L13.5447 37.9328L13.1338 40.2676L11.963 40.0613L12.375 37.7265ZM11.7243 49.653L11.4868 49.6103C11.1776 49.5539 10.9031 49.3782 10.7226 49.1213C10.5421 48.8643 10.4703 48.5467 10.5225 48.2372L10.7291 47.0692L13.7133 47.5933C12.9762 48.2045 12.3091 48.8952 11.7243 49.653V49.653ZM24.4151 44.6621C22.6616 44.3548 20.8638 44.4089 19.132 44.821C17.4003 45.2331 15.7712 45.9946 14.3451 47.0586L14.6467 45.351L11.1376 44.7333L11.5509 42.3973L12.7194 42.6036C12.8575 42.6271 12.9973 42.639 13.1374 42.6392C13.6951 42.6382 14.2346 42.4412 14.6615 42.0828C15.0883 41.7245 15.3753 41.2275 15.472 40.6791L15.8829 38.3455C15.9373 38.0388 15.9306 37.7244 15.8633 37.4203C15.7959 37.1162 15.6693 36.8283 15.4905 36.5731C15.3118 36.3178 15.0845 36.1002 14.8215 35.9328C14.5585 35.7653 14.2651 35.6511 13.958 35.5969L12.7871 35.3905L13.2003 33.0558L41.2681 37.9981L38.3813 54.3463L34.63 53.6847C33.9249 51.3871 32.5978 49.3287 30.7953 47.7366C28.9928 46.1445 26.7848 45.0805 24.4151 44.6621V44.6621ZM57.1604 50.4273C54.7899 50.0098 52.3498 50.2549 50.1101 51.1357C47.8704 52.0165 45.9183 53.4987 44.4696 55.4183L40.7195 54.7578L43.6063 38.4095L65.8268 42.3226C66.5952 42.4558 67.3296 42.7398 67.9873 43.1583C68.6451 43.5768 69.2132 44.1214 69.6588 44.7605C69.8097 44.9902 69.9446 45.2299 70.0626 45.4779L66.582 44.8649C65.9628 44.7558 65.3255 44.8964 64.81 45.2559C64.2944 45.6153 63.9426 46.1642 63.8318 46.7823L63.4185 49.1171C63.3091 49.7364 63.4506 50.3738 63.8118 50.8891C64.173 51.4043 64.7244 51.7552 65.3446 51.8645L70.0234 52.6945L69.6113 55.0293L66.1035 54.4115L65.8018 56.119C64.8267 54.6317 63.5569 53.3594 62.0707 52.3806C60.5846 51.4017 58.9135 50.737 57.1604 50.4273V50.4273ZM70.6421 49.1894L70.4366 50.3574L65.7579 49.5273L66.1711 47.1925L70.73 47.9953C70.7406 48.3953 70.7111 48.7953 70.6421 49.1894V49.1894ZM67.6163 59.4938L67.3788 59.4511C67.0905 58.5413 66.7018 57.6664 66.2198 56.8424L69.204 57.3677L68.9986 58.5345C68.9712 58.6883 68.9138 58.8351 68.8294 58.9667C68.7451 59.0982 68.6355 59.2118 68.5071 59.3009C68.3786 59.3901 68.2338 59.453 68.081 59.4861C67.9281 59.5192 67.7702 59.5218 67.6163 59.4938V59.4938Z" fill="white"/>
<path d="M20.1875 62.0786H5.9375C4.99267 62.0786 4.08653 62.4534 3.41843 63.1205C2.75033 63.7877 2.375 64.6925 2.375 65.6359V70.379C2.375 71.3225 2.75033 72.2273 3.41843 72.8944C4.08653 73.5616 4.99267 73.9364 5.9375 73.9364H20.1875C21.1323 73.9364 22.0385 73.5616 22.7066 72.8944C23.3747 72.2273 23.75 71.3225 23.75 70.379V65.6359C23.75 64.6925 23.3747 63.7877 22.7066 63.1205C22.0385 62.4534 21.1323 62.0786 20.1875 62.0786ZM17.7412 68.145L16.8863 71.5648H14.5825L15.4019 68.2956C15.471 68.021 15.4394 67.7308 15.3128 67.4774L13.7964 64.4502H15.8911L17.7412 68.145ZM10.5687 67.4774L9.04638 64.4502H11.1411L12.9912 68.145L12.1363 71.5648H9.8325L10.6519 68.2956C10.7228 68.0217 10.6933 67.7315 10.5687 67.4774V67.4774ZM4.75 70.379V65.6359C4.75 65.3214 4.87511 65.0198 5.09781 64.7975C5.32051 64.5751 5.62256 64.4502 5.9375 64.4502H6.39112L8.24125 68.145L7.38625 71.5648H5.9375C5.62256 71.5648 5.32051 71.4399 5.09781 71.2175C4.87511 70.9951 4.75 70.6935 4.75 70.379ZM21.375 70.379C21.375 70.6935 21.2499 70.9951 21.0272 71.2175C20.8045 71.4399 20.5024 71.5648 20.1875 71.5648H19.3325L20.1519 68.2956C20.221 68.021 20.1894 67.7308 20.0628 67.4774L18.5464 64.4502H20.1875C20.5024 64.4502 20.8045 64.5751 21.0272 64.7975C21.2499 65.0198 21.375 65.3214 21.375 65.6359V70.379Z" fill="white"/>
<path d="M10.6875 54.9639H13.0625V59.707H10.6875V54.9639Z" fill="white"/>
<path d="M15.4712 59.4478L16.6609 54.7055L18.9635 55.2815L17.7738 60.0238L15.4712 59.4478Z" fill="white"/>
<path d="M4.8103 55.2407L7.1129 54.6647L8.30264 59.407L6.00005 59.983L4.8103 55.2407Z" fill="white"/>
</svg>
