<svg width="856" height="53" viewBox="0 0 856 53" fill="none" xmlns="http://www.w3.org/2000/svg">
<g filter="url(#filter0_d)">
<path d="M56.2609 18.5078C55.8755 19.0599 55.3365 19.474 54.6437 19.75C53.9562 20.0208 53.1542 20.1562 52.2375 20.1562C51.3104 20.1562 50.4875 19.9401 49.7687 19.5078C49.05 19.0703 48.4927 18.4505 48.0969 17.6484C47.7062 16.8464 47.5057 15.9167 47.4953 14.8594V13.8672C47.4953 12.1536 47.8937 10.8255 48.6906 9.88281C49.4927 8.9401 50.6177 8.46875 52.0656 8.46875C53.2531 8.46875 54.2089 8.77344 54.9328 9.38281C55.6568 9.98698 56.0995 10.8464 56.2609 11.9609H54.7609C54.4797 10.4557 53.5839 9.70312 52.0734 9.70312C51.0682 9.70312 50.3052 10.0573 49.7844 10.7656C49.2687 11.4688 49.0083 12.4896 49.0031 13.8281V14.7578C49.0031 16.0339 49.2948 17.0495 49.8781 17.8047C50.4615 18.5547 51.2505 18.9297 52.2453 18.9297C52.8078 18.9297 53.3 18.8672 53.7219 18.7422C54.1437 18.6172 54.4927 18.4062 54.7687 18.1094V15.5547H52.1359V14.3359H56.2609V18.5078ZM63.9109 20C63.8276 19.8333 63.7599 19.5365 63.7078 19.1094C63.0359 19.8073 62.2339 20.1562 61.3016 20.1562C60.4682 20.1562 59.7833 19.9219 59.2469 19.4531C58.7156 18.9792 58.45 18.3802 58.45 17.6562C58.45 16.776 58.7833 16.0938 59.45 15.6094C60.1219 15.1198 61.0646 14.875 62.2781 14.875H63.6844V14.2109C63.6844 13.7057 63.5333 13.3047 63.2312 13.0078C62.9292 12.7057 62.4839 12.5547 61.8953 12.5547C61.3797 12.5547 60.9474 12.6849 60.5984 12.9453C60.2495 13.2057 60.075 13.5208 60.075 13.8906H58.6219C58.6219 13.4688 58.7703 13.0625 59.0672 12.6719C59.3693 12.276 59.7755 11.9635 60.2859 11.7344C60.8016 11.5052 61.3667 11.3906 61.9812 11.3906C62.9552 11.3906 63.7182 11.6354 64.2703 12.125C64.8224 12.6094 65.1089 13.2786 65.1297 14.1328V18.0234C65.1297 18.7995 65.2286 19.4167 65.4266 19.875V20H63.9109ZM61.5125 18.8984C61.9656 18.8984 62.3953 18.7812 62.8016 18.5469C63.2078 18.3125 63.5021 18.0078 63.6844 17.6328V15.8984H62.5516C60.7807 15.8984 59.8953 16.4167 59.8953 17.4531C59.8953 17.9062 60.0464 18.2604 60.3484 18.5156C60.6505 18.7708 61.0385 18.8984 61.5125 18.8984ZM69.1156 20H67.6703V8H69.1156V20ZM73.1562 20H71.7109V8H73.1562V20ZM79.1344 20.1562C77.9885 20.1562 77.0562 19.7812 76.3375 19.0312C75.6187 18.276 75.2594 17.2682 75.2594 16.0078V15.7422C75.2594 14.9036 75.4182 14.1562 75.7359 13.5C76.0589 12.8385 76.5068 12.3229 77.0797 11.9531C77.6578 11.5781 78.2828 11.3906 78.9547 11.3906C80.0536 11.3906 80.9078 11.7526 81.5172 12.4766C82.1266 13.2005 82.4312 14.237 82.4312 15.5859V16.1875H76.7047C76.7255 17.0208 76.9677 17.6953 77.4312 18.2109C77.9 18.7214 78.4937 18.9766 79.2125 18.9766C79.7229 18.9766 80.1552 18.8724 80.5094 18.6641C80.8635 18.4557 81.1734 18.1797 81.4391 17.8359L82.3219 18.5234C81.6135 19.612 80.551 20.1562 79.1344 20.1562ZM78.9547 12.5781C78.3714 12.5781 77.8818 12.7917 77.4859 13.2188C77.0901 13.6406 76.8453 14.2344 76.7516 15H80.9859V14.8906C80.9443 14.1562 80.7464 13.5885 80.3922 13.1875C80.038 12.7812 79.5589 12.5781 78.9547 12.5781ZM88.3469 12.8438C88.1281 12.8073 87.8911 12.7891 87.6359 12.7891C86.688 12.7891 86.0448 13.1927 85.7062 14V20H84.2609V11.5469H85.6672L85.6906 12.5234C86.1646 11.7682 86.8365 11.3906 87.7062 11.3906C87.9875 11.3906 88.201 11.4271 88.3469 11.5V12.8438ZM92.7391 17.8828L94.7078 11.5469H96.2547L92.8563 21.3047C92.3302 22.7109 91.4943 23.4141 90.3484 23.4141L90.075 23.3906L89.5359 23.2891V22.1172L89.9266 22.1484C90.4161 22.1484 90.7964 22.0495 91.0672 21.8516C91.3432 21.6536 91.5698 21.2917 91.7469 20.7656L92.0672 19.9062L89.0516 11.5469H90.6297L92.7391 17.8828Z" fill="#02133C"/>
<path d="M203.303 18.4219H208.467V20H201.327V8.625H203.303V18.4219ZM211.969 20H210.07V11.5469H211.969V20ZM209.953 9.35156C209.953 9.0599 210.044 8.81771 210.227 8.625C210.414 8.43229 210.68 8.33594 211.023 8.33594C211.367 8.33594 211.633 8.43229 211.82 8.625C212.008 8.81771 212.102 9.0599 212.102 9.35156C212.102 9.63802 212.008 9.8776 211.82 10.0703C211.633 10.2578 211.367 10.3516 211.023 10.3516C210.68 10.3516 210.414 10.2578 210.227 10.0703C210.044 9.8776 209.953 9.63802 209.953 9.35156ZM217.173 17.5938L218.962 11.5469H220.923L217.994 20H216.345L213.392 11.5469H215.361L217.173 17.5938ZM225.878 20.1562C224.675 20.1562 223.698 19.7786 222.948 19.0234C222.204 18.263 221.831 17.2526 221.831 15.9922V15.7578C221.831 14.9141 221.993 14.1615 222.316 13.5C222.644 12.8333 223.102 12.3151 223.691 11.9453C224.279 11.5755 224.935 11.3906 225.659 11.3906C226.81 11.3906 227.698 11.7578 228.323 12.4922C228.954 13.2266 229.269 14.2656 229.269 15.6094V16.375H223.745C223.803 17.0729 224.034 17.625 224.441 18.0312C224.852 18.4375 225.368 18.6406 225.987 18.6406C226.857 18.6406 227.566 18.2891 228.112 17.5859L229.136 18.5625C228.797 19.0677 228.344 19.4609 227.777 19.7422C227.214 20.0182 226.581 20.1562 225.878 20.1562ZM225.652 12.9141C225.131 12.9141 224.709 13.0964 224.386 13.4609C224.068 13.8255 223.865 14.3333 223.777 14.9844H227.394V14.8438C227.352 14.2083 227.183 13.7292 226.886 13.4062C226.589 13.0781 226.178 12.9141 225.652 12.9141ZM239.772 17.7031C239.772 17.3646 239.631 17.1068 239.35 16.9297C239.074 16.7526 238.613 16.5964 237.967 16.4609C237.321 16.3255 236.782 16.1536 236.35 15.9453C235.402 15.487 234.928 14.8229 234.928 13.9531C234.928 13.224 235.235 12.6146 235.85 12.125C236.465 11.6354 237.246 11.3906 238.194 11.3906C239.204 11.3906 240.019 11.6406 240.639 12.1406C241.264 12.6406 241.577 13.2891 241.577 14.0859H239.678C239.678 13.7214 239.543 13.4193 239.272 13.1797C239.001 12.9349 238.642 12.8125 238.194 12.8125C237.777 12.8125 237.436 12.9089 237.17 13.1016C236.91 13.2943 236.78 13.5521 236.78 13.875C236.78 14.1667 236.902 14.3932 237.147 14.5547C237.392 14.7161 237.886 14.8802 238.631 15.0469C239.376 15.2083 239.959 15.4036 240.381 15.6328C240.808 15.8568 241.123 16.1276 241.327 16.4453C241.535 16.763 241.639 17.1484 241.639 17.6016C241.639 18.362 241.324 18.9792 240.694 19.4531C240.064 19.9219 239.238 20.1562 238.217 20.1562C237.524 20.1562 236.907 20.0312 236.366 19.7812C235.824 19.5312 235.402 19.1875 235.1 18.75C234.798 18.3125 234.647 17.8411 234.647 17.3359H236.491C236.517 17.7839 236.686 18.1302 236.998 18.375C237.311 18.6146 237.725 18.7344 238.241 18.7344C238.741 18.7344 239.121 18.6406 239.381 18.4531C239.642 18.2604 239.772 18.0104 239.772 17.7031ZM245.828 9.49219V11.5469H247.32V12.9531H245.828V17.6719C245.828 17.9948 245.891 18.2292 246.016 18.375C246.146 18.5156 246.375 18.5859 246.703 18.5859C246.922 18.5859 247.143 18.5599 247.367 18.5078V19.9766C246.935 20.0964 246.518 20.1562 246.117 20.1562C244.659 20.1562 243.93 19.3516 243.93 17.7422V12.9531H242.539V11.5469H243.93V9.49219H245.828ZM253.353 13.2812C253.103 13.2396 252.845 13.2188 252.58 13.2188C251.71 13.2188 251.124 13.5521 250.822 14.2188V20H248.923V11.5469H250.736L250.783 12.4922C251.241 11.7578 251.877 11.3906 252.689 11.3906C252.96 11.3906 253.184 11.4271 253.361 11.5L253.353 13.2812ZM258.269 20.1562C257.066 20.1562 256.089 19.7786 255.339 19.0234C254.594 18.263 254.222 17.2526 254.222 15.9922V15.7578C254.222 14.9141 254.383 14.1615 254.706 13.5C255.034 12.8333 255.493 12.3151 256.081 11.9453C256.67 11.5755 257.326 11.3906 258.05 11.3906C259.201 11.3906 260.089 11.7578 260.714 12.4922C261.344 13.2266 261.659 14.2656 261.659 15.6094V16.375H256.136C256.193 17.0729 256.425 17.625 256.831 18.0312C257.243 18.4375 257.758 18.6406 258.378 18.6406C259.248 18.6406 259.956 18.2891 260.503 17.5859L261.527 18.5625C261.188 19.0677 260.735 19.4609 260.167 19.7422C259.605 20.0182 258.972 20.1562 258.269 20.1562ZM258.042 12.9141C257.521 12.9141 257.099 13.0964 256.777 13.4609C256.459 13.8255 256.256 14.3333 256.167 14.9844H259.784V14.8438C259.743 14.2083 259.573 13.7292 259.277 13.4062C258.98 13.0781 258.568 12.9141 258.042 12.9141ZM268.341 20C268.257 19.8385 268.184 19.5755 268.122 19.2109C267.518 19.8411 266.778 20.1562 265.903 20.1562C265.054 20.1562 264.361 19.9141 263.825 19.4297C263.289 18.9453 263.02 18.3464 263.02 17.6328C263.02 16.7318 263.354 16.0417 264.02 15.5625C264.692 15.0781 265.651 14.8359 266.895 14.8359H268.059V14.2812C268.059 13.8438 267.937 13.4948 267.692 13.2344C267.447 12.9688 267.075 12.8359 266.575 12.8359C266.143 12.8359 265.789 12.9453 265.512 13.1641C265.236 13.3776 265.098 13.651 265.098 13.9844H263.2C263.2 13.5208 263.354 13.0885 263.661 12.6875C263.968 12.2812 264.385 11.9635 264.911 11.7344C265.442 11.5052 266.033 11.3906 266.684 11.3906C267.674 11.3906 268.463 11.6406 269.052 12.1406C269.64 12.6354 269.942 13.3333 269.958 14.2344V18.0469C269.958 18.8073 270.065 19.4141 270.278 19.8672V20H268.341ZM266.255 18.6328C266.63 18.6328 266.981 18.5417 267.309 18.3594C267.643 18.1771 267.893 17.9323 268.059 17.625V16.0312H267.036C266.333 16.0312 265.804 16.1536 265.45 16.3984C265.096 16.6432 264.919 16.9896 264.919 17.4375C264.919 17.8021 265.039 18.0938 265.278 18.3125C265.523 18.526 265.848 18.6328 266.255 18.6328ZM273.881 11.5469L273.936 12.4297C274.53 11.737 275.342 11.3906 276.373 11.3906C277.504 11.3906 278.277 11.8229 278.694 12.6875C279.308 11.8229 280.173 11.3906 281.287 11.3906C282.22 11.3906 282.912 11.6484 283.366 12.1641C283.824 12.6797 284.058 13.4401 284.069 14.4453V20H282.17V14.5C282.17 13.9635 282.053 13.5703 281.819 13.3203C281.584 13.0703 281.196 12.9453 280.655 12.9453C280.222 12.9453 279.868 13.0625 279.592 13.2969C279.321 13.526 279.131 13.8281 279.022 14.2031L279.03 20H277.131V14.4375C277.105 13.4427 276.597 12.9453 275.608 12.9453C274.847 12.9453 274.308 13.2552 273.991 13.875V20H272.092V11.5469H273.881ZM287.312 18C287.667 18 287.94 18.1016 288.133 18.3047C288.326 18.5026 288.422 18.7526 288.422 19.0547C288.422 19.3516 288.326 19.599 288.133 19.7969C287.94 19.9896 287.667 20.0859 287.312 20.0859C286.974 20.0859 286.706 19.9896 286.508 19.7969C286.31 19.6042 286.211 19.3568 286.211 19.0547C286.211 18.7526 286.307 18.5026 286.5 18.3047C286.693 18.1016 286.964 18 287.312 18ZM287.312 11.3672C287.667 11.3672 287.94 11.4688 288.133 11.6719C288.326 11.8698 288.422 12.1198 288.422 12.4219C288.422 12.7188 288.326 12.9661 288.133 13.1641C287.94 13.3568 287.667 13.4531 287.312 13.4531C286.974 13.4531 286.706 13.3568 286.508 13.1641C286.31 12.9714 286.211 12.724 286.211 12.4219C286.211 12.1198 286.307 11.8698 286.5 11.6719C286.693 11.4688 286.964 11.3672 287.312 11.3672ZM294.886 20V8.625H298.784C300.071 8.625 301.05 8.88281 301.722 9.39844C302.394 9.91406 302.73 10.6823 302.73 11.7031C302.73 12.224 302.589 12.6927 302.308 13.1094C302.027 13.526 301.615 13.849 301.073 14.0781C301.688 14.2448 302.162 14.5599 302.495 15.0234C302.834 15.4818 303.003 16.0339 303.003 16.6797C303.003 17.7474 302.659 18.5677 301.972 19.1406C301.29 19.7135 300.31 20 299.034 20H294.886ZM296.862 14.8672V18.4219H299.058C299.678 18.4219 300.162 18.2682 300.511 17.9609C300.86 17.6536 301.034 17.2266 301.034 16.6797C301.034 15.4974 300.43 14.8932 299.222 14.8672H296.862ZM296.862 13.4141H298.8C299.415 13.4141 299.894 13.276 300.237 13C300.586 12.7188 300.761 12.3229 300.761 11.8125C300.761 11.25 300.599 10.8438 300.277 10.5938C299.959 10.3438 299.461 10.2188 298.784 10.2188H296.862V13.4141ZM309.997 20C309.914 19.8385 309.841 19.5755 309.778 19.2109C309.174 19.8411 308.434 20.1562 307.559 20.1562C306.71 20.1562 306.018 19.9141 305.481 19.4297C304.945 18.9453 304.677 18.3464 304.677 17.6328C304.677 16.7318 305.01 16.0417 305.677 15.5625C306.348 15.0781 307.307 14.8359 308.552 14.8359H309.716V14.2812C309.716 13.8438 309.593 13.4948 309.348 13.2344C309.104 12.9688 308.731 12.8359 308.231 12.8359C307.799 12.8359 307.445 12.9453 307.169 13.1641C306.893 13.3776 306.755 13.651 306.755 13.9844H304.856C304.856 13.5208 305.01 13.0885 305.317 12.6875C305.624 12.2812 306.041 11.9635 306.567 11.7344C307.098 11.5052 307.69 11.3906 308.341 11.3906C309.33 11.3906 310.119 11.6406 310.708 12.1406C311.296 12.6354 311.598 13.3333 311.614 14.2344V18.0469C311.614 18.8073 311.721 19.4141 311.934 19.8672V20H309.997ZM307.911 18.6328C308.286 18.6328 308.637 18.5417 308.966 18.3594C309.299 18.1771 309.549 17.9323 309.716 17.625V16.0312H308.692C307.989 16.0312 307.46 16.1536 307.106 16.3984C306.752 16.6432 306.575 16.9896 306.575 17.4375C306.575 17.8021 306.695 18.0938 306.934 18.3125C307.179 18.526 307.505 18.6328 307.911 18.6328ZM316.584 17.2812L318.303 11.5469H320.327L316.967 21.2812C316.452 22.7031 315.577 23.4141 314.342 23.4141C314.066 23.4141 313.761 23.3672 313.428 23.2734V21.8047L313.787 21.8281C314.267 21.8281 314.626 21.7396 314.866 21.5625C315.11 21.3906 315.303 21.099 315.444 20.6875L315.717 19.9609L312.748 11.5469H314.795L316.584 17.2812ZM330.728 20H328.838V10.8672L326.048 11.8203V10.2188L330.486 8.58594H330.728V20Z" fill="#C40B0B"/>
<path d="M441.811 18.7734H447.202V20H440.303V8.625H441.811V18.7734ZM450.406 20H448.961V11.5469H450.406V20ZM448.844 9.30469C448.844 9.07031 448.914 8.8724 449.055 8.71094C449.201 8.54948 449.414 8.46875 449.695 8.46875C449.977 8.46875 450.19 8.54948 450.336 8.71094C450.482 8.8724 450.555 9.07031 450.555 9.30469C450.555 9.53906 450.482 9.73438 450.336 9.89062C450.19 10.0469 449.977 10.125 449.695 10.125C449.414 10.125 449.201 10.0469 449.055 9.89062C448.914 9.73438 448.844 9.53906 448.844 9.30469ZM455.666 18.0391L457.759 11.5469H459.236L456.205 20H455.103L452.041 11.5469H453.517L455.666 18.0391ZM464.175 20.1562C463.029 20.1562 462.097 19.7812 461.378 19.0312C460.659 18.276 460.3 17.2682 460.3 16.0078V15.7422C460.3 14.9036 460.459 14.1562 460.777 13.5C461.099 12.8385 461.547 12.3229 462.12 11.9531C462.698 11.5781 463.323 11.3906 463.995 11.3906C465.094 11.3906 465.948 11.7526 466.558 12.4766C467.167 13.2005 467.472 14.237 467.472 15.5859V16.1875H461.745C461.766 17.0208 462.008 17.6953 462.472 18.2109C462.941 18.7214 463.534 18.9766 464.253 18.9766C464.764 18.9766 465.196 18.8724 465.55 18.6641C465.904 18.4557 466.214 18.1797 466.48 17.8359L467.362 18.5234C466.654 19.612 465.592 20.1562 464.175 20.1562ZM463.995 12.5781C463.412 12.5781 462.922 12.7917 462.527 13.2188C462.131 13.6406 461.886 14.2344 461.792 15H466.027V14.8906C465.985 14.1562 465.787 13.5885 465.433 13.1875C465.079 12.7812 464.599 12.5781 463.995 12.5781ZM478.342 17.7578C478.342 17.3672 478.194 17.0651 477.897 16.8516C477.605 16.6328 477.092 16.4453 476.358 16.2891C475.629 16.1328 475.048 15.9453 474.616 15.7266C474.189 15.5078 473.871 15.2474 473.662 14.9453C473.459 14.6432 473.358 14.2839 473.358 13.8672C473.358 13.1745 473.649 12.5885 474.233 12.1094C474.821 11.6302 475.571 11.3906 476.483 11.3906C477.441 11.3906 478.217 11.638 478.811 12.1328C479.41 12.6276 479.709 13.2604 479.709 14.0312H478.256C478.256 13.6354 478.087 13.2943 477.748 13.0078C477.415 12.7214 476.993 12.5781 476.483 12.5781C475.957 12.5781 475.545 12.6927 475.248 12.9219C474.952 13.151 474.803 13.4505 474.803 13.8203C474.803 14.1693 474.941 14.4323 475.217 14.6094C475.493 14.7865 475.991 14.9557 476.709 15.1172C477.433 15.2786 478.019 15.4714 478.467 15.6953C478.915 15.9193 479.246 16.1901 479.459 16.5078C479.678 16.8203 479.787 17.2031 479.787 17.6562C479.787 18.4115 479.485 19.0182 478.881 19.4766C478.277 19.9297 477.493 20.1562 476.53 20.1562C475.853 20.1562 475.254 20.0365 474.733 19.7969C474.212 19.5573 473.803 19.224 473.506 18.7969C473.215 18.3646 473.069 17.8984 473.069 17.3984H474.514C474.54 17.8828 474.733 18.2682 475.092 18.5547C475.457 18.8359 475.936 18.9766 476.53 18.9766C477.077 18.9766 477.514 18.8672 477.842 18.6484C478.176 18.4245 478.342 18.1276 478.342 17.7578ZM483.781 9.5V11.5469H485.359V12.6641H483.781V17.9062C483.781 18.2448 483.852 18.5 483.992 18.6719C484.133 18.8385 484.372 18.9219 484.711 18.9219C484.878 18.9219 485.107 18.8906 485.398 18.8281V20C485.018 20.1042 484.648 20.1562 484.289 20.1562C483.643 20.1562 483.156 19.9609 482.828 19.5703C482.5 19.1797 482.336 18.625 482.336 17.9062V12.6641H480.797V11.5469H482.336V9.5H483.781ZM491.291 12.8438C491.072 12.8073 490.835 12.7891 490.58 12.7891C489.632 12.7891 488.989 13.1927 488.65 14V20H487.205V11.5469H488.611L488.634 12.5234C489.108 11.7682 489.78 11.3906 490.65 11.3906C490.931 11.3906 491.145 11.4271 491.291 11.5V12.8438ZM496.128 20.1562C494.982 20.1562 494.05 19.7812 493.331 19.0312C492.612 18.276 492.253 17.2682 492.253 16.0078V15.7422C492.253 14.9036 492.412 14.1562 492.73 13.5C493.053 12.8385 493.501 12.3229 494.073 11.9531C494.652 11.5781 495.277 11.3906 495.948 11.3906C497.047 11.3906 497.902 11.7526 498.511 12.4766C499.12 13.2005 499.425 14.237 499.425 15.5859V16.1875H493.698C493.719 17.0208 493.961 17.6953 494.425 18.2109C494.894 18.7214 495.487 18.9766 496.206 18.9766C496.717 18.9766 497.149 18.8724 497.503 18.6641C497.857 18.4557 498.167 18.1797 498.433 17.8359L499.316 18.5234C498.607 19.612 497.545 20.1562 496.128 20.1562ZM495.948 12.5781C495.365 12.5781 494.876 12.7917 494.48 13.2188C494.084 13.6406 493.839 14.2344 493.745 15H497.98V14.8906C497.938 14.1562 497.74 13.5885 497.386 13.1875C497.032 12.7812 496.553 12.5781 495.948 12.5781ZM506.473 20C506.39 19.8333 506.322 19.5365 506.27 19.1094C505.598 19.8073 504.796 20.1562 503.864 20.1562C503.031 20.1562 502.346 19.9219 501.809 19.4531C501.278 18.9792 501.012 18.3802 501.012 17.6562C501.012 16.776 501.346 16.0938 502.012 15.6094C502.684 15.1198 503.627 14.875 504.841 14.875H506.247V14.2109C506.247 13.7057 506.096 13.3047 505.794 13.0078C505.492 12.7057 505.046 12.5547 504.458 12.5547C503.942 12.5547 503.51 12.6849 503.161 12.9453C502.812 13.2057 502.637 13.5208 502.637 13.8906H501.184C501.184 13.4688 501.333 13.0625 501.63 12.6719C501.932 12.276 502.338 11.9635 502.848 11.7344C503.364 11.5052 503.929 11.3906 504.544 11.3906C505.518 11.3906 506.281 11.6354 506.833 12.125C507.385 12.6094 507.671 13.2786 507.692 14.1328V18.0234C507.692 18.7995 507.791 19.4167 507.989 19.875V20H506.473ZM504.075 18.8984C504.528 18.8984 504.958 18.7812 505.364 18.5469C505.77 18.3125 506.065 18.0078 506.247 17.6328V15.8984H505.114C503.343 15.8984 502.458 16.4167 502.458 17.4531C502.458 17.9062 502.609 18.2604 502.911 18.5156C503.213 18.7708 503.601 18.8984 504.075 18.8984ZM511.467 11.5469L511.506 12.4844C512.126 11.7552 512.962 11.3906 514.014 11.3906C515.196 11.3906 516.001 11.8438 516.428 12.75C516.709 12.3438 517.074 12.0156 517.522 11.7656C517.975 11.5156 518.509 11.3906 519.123 11.3906C520.978 11.3906 521.92 12.3724 521.952 14.3359V20H520.506V14.4219C520.506 13.8177 520.368 13.3672 520.092 13.0703C519.816 12.7682 519.353 12.6172 518.702 12.6172C518.165 12.6172 517.72 12.7786 517.366 13.1016C517.011 13.4193 516.806 13.849 516.748 14.3906V20H515.295V14.4609C515.295 13.2318 514.694 12.6172 513.491 12.6172C512.543 12.6172 511.894 13.0208 511.545 13.8281V20H510.1V11.5469H511.467ZM524.242 19.2422C524.242 18.9922 524.315 18.7839 524.461 18.6172C524.612 18.4505 524.836 18.3672 525.133 18.3672C525.43 18.3672 525.654 18.4505 525.805 18.6172C525.961 18.7839 526.039 18.9922 526.039 19.2422C526.039 19.4818 525.961 19.6823 525.805 19.8438C525.654 20.0052 525.43 20.0859 525.133 20.0859C524.836 20.0859 524.612 20.0052 524.461 19.8438C524.315 19.6823 524.242 19.4818 524.242 19.2422ZM524.25 12.3438C524.25 12.0938 524.323 11.8854 524.469 11.7188C524.62 11.5521 524.844 11.4688 525.141 11.4688C525.438 11.4688 525.661 11.5521 525.812 11.7188C525.969 11.8854 526.047 12.0938 526.047 12.3438C526.047 12.5833 525.969 12.7839 525.812 12.9453C525.661 13.1068 525.438 13.1875 525.141 13.1875C524.844 13.1875 524.62 13.1068 524.469 12.9453C524.323 12.7839 524.25 12.5833 524.25 12.3438ZM532.659 20V8.625H536.378C537.612 8.625 538.54 8.88021 539.159 9.39062C539.784 9.90104 540.097 10.6562 540.097 11.6562C540.097 12.1875 539.946 12.6589 539.644 13.0703C539.342 13.4766 538.93 13.7917 538.409 14.0156C539.024 14.1875 539.508 14.5156 539.862 15C540.222 15.4792 540.402 16.0521 540.402 16.7188C540.402 17.7396 540.071 18.5417 539.409 19.125C538.748 19.7083 537.813 20 536.605 20H532.659ZM534.159 14.6797V18.7734H536.636C537.334 18.7734 537.883 18.5938 538.284 18.2344C538.691 17.8698 538.894 17.3698 538.894 16.7344C538.894 15.3646 538.149 14.6797 536.659 14.6797H534.159ZM534.159 13.4766H536.425C537.081 13.4766 537.605 13.3125 537.995 12.9844C538.391 12.6562 538.589 12.2109 538.589 11.6484C538.589 11.0234 538.407 10.5703 538.042 10.2891C537.678 10.0026 537.123 9.85938 536.378 9.85938H534.159V13.4766ZM547.77 20C547.687 19.8333 547.619 19.5365 547.567 19.1094C546.895 19.8073 546.093 20.1562 545.161 20.1562C544.328 20.1562 543.643 19.9219 543.106 19.4531C542.575 18.9792 542.309 18.3802 542.309 17.6562C542.309 16.776 542.643 16.0938 543.309 15.6094C543.981 15.1198 544.924 14.875 546.137 14.875H547.544V14.2109C547.544 13.7057 547.393 13.3047 547.091 13.0078C546.789 12.7057 546.343 12.5547 545.755 12.5547C545.239 12.5547 544.807 12.6849 544.458 12.9453C544.109 13.2057 543.934 13.5208 543.934 13.8906H542.481C542.481 13.4688 542.63 13.0625 542.927 12.6719C543.229 12.276 543.635 11.9635 544.145 11.7344C544.661 11.5052 545.226 11.3906 545.841 11.3906C546.815 11.3906 547.578 11.6354 548.13 12.125C548.682 12.6094 548.968 13.2786 548.989 14.1328V18.0234C548.989 18.7995 549.088 19.4167 549.286 19.875V20H547.77ZM545.372 18.8984C545.825 18.8984 546.255 18.7812 546.661 18.5469C547.067 18.3125 547.361 18.0078 547.544 17.6328V15.8984H546.411C544.64 15.8984 543.755 16.4167 543.755 17.4531C543.755 17.9062 543.906 18.2604 544.208 18.5156C544.51 18.7708 544.898 18.8984 545.372 18.8984ZM554.045 17.8828L556.014 11.5469H557.561L554.162 21.3047C553.636 22.7109 552.801 23.4141 551.655 23.4141L551.381 23.3906L550.842 23.2891V22.1172L551.233 22.1484C551.722 22.1484 552.103 22.0495 552.373 21.8516C552.649 21.6536 552.876 21.2917 553.053 20.7656L553.373 19.9062L550.358 11.5469H551.936L554.045 17.8828ZM570.431 20H562.978V18.9609L566.916 14.5859C567.499 13.9245 567.9 13.388 568.119 12.9766C568.343 12.5599 568.455 12.1302 568.455 11.6875C568.455 11.0938 568.275 10.6068 567.916 10.2266C567.556 9.84635 567.077 9.65625 566.478 9.65625C565.759 9.65625 565.199 9.86198 564.798 10.2734C564.403 10.6797 564.205 11.2474 564.205 11.9766H562.759C562.759 10.9297 563.095 10.0833 563.767 9.4375C564.444 8.79167 565.348 8.46875 566.478 8.46875C567.535 8.46875 568.371 8.7474 568.986 9.30469C569.601 9.85677 569.908 10.5938 569.908 11.5156C569.908 12.6354 569.194 13.9688 567.767 15.5156L564.72 18.8203H570.431V20Z" fill="#02133C"/>
<path d="M679.811 18.7734H685.202V20H678.303V8.625H679.811V18.7734ZM688.406 20H686.961V11.5469H688.406V20ZM686.844 9.30469C686.844 9.07031 686.914 8.8724 687.055 8.71094C687.201 8.54948 687.414 8.46875 687.695 8.46875C687.977 8.46875 688.19 8.54948 688.336 8.71094C688.482 8.8724 688.555 9.07031 688.555 9.30469C688.555 9.53906 688.482 9.73438 688.336 9.89062C688.19 10.0469 687.977 10.125 687.695 10.125C687.414 10.125 687.201 10.0469 687.055 9.89062C686.914 9.73438 686.844 9.53906 686.844 9.30469ZM693.666 18.0391L695.759 11.5469H697.236L694.205 20H693.103L690.041 11.5469H691.517L693.666 18.0391ZM702.175 20.1562C701.029 20.1562 700.097 19.7812 699.378 19.0312C698.659 18.276 698.3 17.2682 698.3 16.0078V15.7422C698.3 14.9036 698.459 14.1562 698.777 13.5C699.099 12.8385 699.547 12.3229 700.12 11.9531C700.698 11.5781 701.323 11.3906 701.995 11.3906C703.094 11.3906 703.948 11.7526 704.558 12.4766C705.167 13.2005 705.472 14.237 705.472 15.5859V16.1875H699.745C699.766 17.0208 700.008 17.6953 700.472 18.2109C700.941 18.7214 701.534 18.9766 702.253 18.9766C702.764 18.9766 703.196 18.8724 703.55 18.6641C703.904 18.4557 704.214 18.1797 704.48 17.8359L705.362 18.5234C704.654 19.612 703.592 20.1562 702.175 20.1562ZM701.995 12.5781C701.412 12.5781 700.922 12.7917 700.527 13.2188C700.131 13.6406 699.886 14.2344 699.792 15H704.027V14.8906C703.985 14.1562 703.787 13.5885 703.433 13.1875C703.079 12.7812 702.599 12.5781 701.995 12.5781ZM716.342 17.7578C716.342 17.3672 716.194 17.0651 715.897 16.8516C715.605 16.6328 715.092 16.4453 714.358 16.2891C713.629 16.1328 713.048 15.9453 712.616 15.7266C712.189 15.5078 711.871 15.2474 711.662 14.9453C711.459 14.6432 711.358 14.2839 711.358 13.8672C711.358 13.1745 711.649 12.5885 712.233 12.1094C712.821 11.6302 713.571 11.3906 714.483 11.3906C715.441 11.3906 716.217 11.638 716.811 12.1328C717.41 12.6276 717.709 13.2604 717.709 14.0312H716.256C716.256 13.6354 716.087 13.2943 715.748 13.0078C715.415 12.7214 714.993 12.5781 714.483 12.5781C713.957 12.5781 713.545 12.6927 713.248 12.9219C712.952 13.151 712.803 13.4505 712.803 13.8203C712.803 14.1693 712.941 14.4323 713.217 14.6094C713.493 14.7865 713.991 14.9557 714.709 15.1172C715.433 15.2786 716.019 15.4714 716.467 15.6953C716.915 15.9193 717.246 16.1901 717.459 16.5078C717.678 16.8203 717.787 17.2031 717.787 17.6562C717.787 18.4115 717.485 19.0182 716.881 19.4766C716.277 19.9297 715.493 20.1562 714.53 20.1562C713.853 20.1562 713.254 20.0365 712.733 19.7969C712.212 19.5573 711.803 19.224 711.506 18.7969C711.215 18.3646 711.069 17.8984 711.069 17.3984H712.514C712.54 17.8828 712.733 18.2682 713.092 18.5547C713.457 18.8359 713.936 18.9766 714.53 18.9766C715.077 18.9766 715.514 18.8672 715.842 18.6484C716.176 18.4245 716.342 18.1276 716.342 17.7578ZM721.781 9.5V11.5469H723.359V12.6641H721.781V17.9062C721.781 18.2448 721.852 18.5 721.992 18.6719C722.133 18.8385 722.372 18.9219 722.711 18.9219C722.878 18.9219 723.107 18.8906 723.398 18.8281V20C723.018 20.1042 722.648 20.1562 722.289 20.1562C721.643 20.1562 721.156 19.9609 720.828 19.5703C720.5 19.1797 720.336 18.625 720.336 17.9062V12.6641H718.797V11.5469H720.336V9.5H721.781ZM729.291 12.8438C729.072 12.8073 728.835 12.7891 728.58 12.7891C727.632 12.7891 726.989 13.1927 726.65 14V20H725.205V11.5469H726.611L726.634 12.5234C727.108 11.7682 727.78 11.3906 728.65 11.3906C728.931 11.3906 729.145 11.4271 729.291 11.5V12.8438ZM734.128 20.1562C732.982 20.1562 732.05 19.7812 731.331 19.0312C730.612 18.276 730.253 17.2682 730.253 16.0078V15.7422C730.253 14.9036 730.412 14.1562 730.73 13.5C731.053 12.8385 731.501 12.3229 732.073 11.9531C732.652 11.5781 733.277 11.3906 733.948 11.3906C735.047 11.3906 735.902 11.7526 736.511 12.4766C737.12 13.2005 737.425 14.237 737.425 15.5859V16.1875H731.698C731.719 17.0208 731.961 17.6953 732.425 18.2109C732.894 18.7214 733.487 18.9766 734.206 18.9766C734.717 18.9766 735.149 18.8724 735.503 18.6641C735.857 18.4557 736.167 18.1797 736.433 17.8359L737.316 18.5234C736.607 19.612 735.545 20.1562 734.128 20.1562ZM733.948 12.5781C733.365 12.5781 732.876 12.7917 732.48 13.2188C732.084 13.6406 731.839 14.2344 731.745 15H735.98V14.8906C735.938 14.1562 735.74 13.5885 735.386 13.1875C735.032 12.7812 734.553 12.5781 733.948 12.5781ZM744.473 20C744.39 19.8333 744.322 19.5365 744.27 19.1094C743.598 19.8073 742.796 20.1562 741.864 20.1562C741.031 20.1562 740.346 19.9219 739.809 19.4531C739.278 18.9792 739.012 18.3802 739.012 17.6562C739.012 16.776 739.346 16.0938 740.012 15.6094C740.684 15.1198 741.627 14.875 742.841 14.875H744.247V14.2109C744.247 13.7057 744.096 13.3047 743.794 13.0078C743.492 12.7057 743.046 12.5547 742.458 12.5547C741.942 12.5547 741.51 12.6849 741.161 12.9453C740.812 13.2057 740.637 13.5208 740.637 13.8906H739.184C739.184 13.4688 739.333 13.0625 739.63 12.6719C739.932 12.276 740.338 11.9635 740.848 11.7344C741.364 11.5052 741.929 11.3906 742.544 11.3906C743.518 11.3906 744.281 11.6354 744.833 12.125C745.385 12.6094 745.671 13.2786 745.692 14.1328V18.0234C745.692 18.7995 745.791 19.4167 745.989 19.875V20H744.473ZM742.075 18.8984C742.528 18.8984 742.958 18.7812 743.364 18.5469C743.77 18.3125 744.065 18.0078 744.247 17.6328V15.8984H743.114C741.343 15.8984 740.458 16.4167 740.458 17.4531C740.458 17.9062 740.609 18.2604 740.911 18.5156C741.213 18.7708 741.601 18.8984 742.075 18.8984ZM749.467 11.5469L749.506 12.4844C750.126 11.7552 750.962 11.3906 752.014 11.3906C753.196 11.3906 754.001 11.8438 754.428 12.75C754.709 12.3438 755.074 12.0156 755.522 11.7656C755.975 11.5156 756.509 11.3906 757.123 11.3906C758.978 11.3906 759.92 12.3724 759.952 14.3359V20H758.506V14.4219C758.506 13.8177 758.368 13.3672 758.092 13.0703C757.816 12.7682 757.353 12.6172 756.702 12.6172C756.165 12.6172 755.72 12.7786 755.366 13.1016C755.011 13.4193 754.806 13.849 754.748 14.3906V20H753.295V14.4609C753.295 13.2318 752.694 12.6172 751.491 12.6172C750.543 12.6172 749.894 13.0208 749.545 13.8281V20H748.1V11.5469H749.467ZM762.242 19.2422C762.242 18.9922 762.315 18.7839 762.461 18.6172C762.612 18.4505 762.836 18.3672 763.133 18.3672C763.43 18.3672 763.654 18.4505 763.805 18.6172C763.961 18.7839 764.039 18.9922 764.039 19.2422C764.039 19.4818 763.961 19.6823 763.805 19.8438C763.654 20.0052 763.43 20.0859 763.133 20.0859C762.836 20.0859 762.612 20.0052 762.461 19.8438C762.315 19.6823 762.242 19.4818 762.242 19.2422ZM762.25 12.3438C762.25 12.0938 762.323 11.8854 762.469 11.7188C762.62 11.5521 762.844 11.4688 763.141 11.4688C763.438 11.4688 763.661 11.5521 763.812 11.7188C763.969 11.8854 764.047 12.0938 764.047 12.3438C764.047 12.5833 763.969 12.7839 763.812 12.9453C763.661 13.1068 763.438 13.1875 763.141 13.1875C762.844 13.1875 762.62 13.1068 762.469 12.9453C762.323 12.7839 762.25 12.5833 762.25 12.3438ZM770.659 20V8.625H774.378C775.612 8.625 776.54 8.88021 777.159 9.39062C777.784 9.90104 778.097 10.6562 778.097 11.6562C778.097 12.1875 777.946 12.6589 777.644 13.0703C777.342 13.4766 776.93 13.7917 776.409 14.0156C777.024 14.1875 777.508 14.5156 777.862 15C778.222 15.4792 778.402 16.0521 778.402 16.7188C778.402 17.7396 778.071 18.5417 777.409 19.125C776.748 19.7083 775.813 20 774.605 20H770.659ZM772.159 14.6797V18.7734H774.636C775.334 18.7734 775.883 18.5938 776.284 18.2344C776.691 17.8698 776.894 17.3698 776.894 16.7344C776.894 15.3646 776.149 14.6797 774.659 14.6797H772.159ZM772.159 13.4766H774.425C775.081 13.4766 775.605 13.3125 775.995 12.9844C776.391 12.6562 776.589 12.2109 776.589 11.6484C776.589 11.0234 776.407 10.5703 776.042 10.2891C775.678 10.0026 775.123 9.85938 774.378 9.85938H772.159V13.4766ZM785.77 20C785.687 19.8333 785.619 19.5365 785.567 19.1094C784.895 19.8073 784.093 20.1562 783.161 20.1562C782.328 20.1562 781.643 19.9219 781.106 19.4531C780.575 18.9792 780.309 18.3802 780.309 17.6562C780.309 16.776 780.643 16.0938 781.309 15.6094C781.981 15.1198 782.924 14.875 784.137 14.875H785.544V14.2109C785.544 13.7057 785.393 13.3047 785.091 13.0078C784.789 12.7057 784.343 12.5547 783.755 12.5547C783.239 12.5547 782.807 12.6849 782.458 12.9453C782.109 13.2057 781.934 13.5208 781.934 13.8906H780.481C780.481 13.4688 780.63 13.0625 780.927 12.6719C781.229 12.276 781.635 11.9635 782.145 11.7344C782.661 11.5052 783.226 11.3906 783.841 11.3906C784.815 11.3906 785.578 11.6354 786.13 12.125C786.682 12.6094 786.968 13.2786 786.989 14.1328V18.0234C786.989 18.7995 787.088 19.4167 787.286 19.875V20H785.77ZM783.372 18.8984C783.825 18.8984 784.255 18.7812 784.661 18.5469C785.067 18.3125 785.361 18.0078 785.544 17.6328V15.8984H784.411C782.64 15.8984 781.755 16.4167 781.755 17.4531C781.755 17.9062 781.906 18.2604 782.208 18.5156C782.51 18.7708 782.898 18.8984 783.372 18.8984ZM792.045 17.8828L794.014 11.5469H795.561L792.162 21.3047C791.636 22.7109 790.801 23.4141 789.655 23.4141L789.381 23.3906L788.842 23.2891V22.1172L789.233 22.1484C789.722 22.1484 790.103 22.0495 790.373 21.8516C790.649 21.6536 790.876 21.2917 791.053 20.7656L791.373 19.9062L788.358 11.5469H789.936L792.045 17.8828ZM803.08 13.6094H804.166C804.848 13.599 805.384 13.4193 805.775 13.0703C806.166 12.7214 806.361 12.25 806.361 11.6562C806.361 10.3229 805.697 9.65625 804.369 9.65625C803.744 9.65625 803.244 9.83594 802.869 10.1953C802.499 10.5495 802.314 11.0208 802.314 11.6094H800.869C800.869 10.7083 801.197 9.96094 801.853 9.36719C802.515 8.76823 803.353 8.46875 804.369 8.46875C805.442 8.46875 806.283 8.7526 806.892 9.32031C807.502 9.88802 807.806 10.6771 807.806 11.6875C807.806 12.1823 807.645 12.6615 807.322 13.125C807.004 13.5885 806.569 13.9349 806.017 14.1641C806.642 14.362 807.124 14.6901 807.463 15.1484C807.806 15.6068 807.978 16.1667 807.978 16.8281C807.978 17.849 807.645 18.6589 806.978 19.2578C806.311 19.8568 805.444 20.1562 804.377 20.1562C803.309 20.1562 802.439 19.8672 801.767 19.2891C801.101 18.7109 800.767 17.9479 800.767 17H802.22C802.22 17.599 802.416 18.0781 802.806 18.4375C803.197 18.7969 803.72 18.9766 804.377 18.9766C805.074 18.9766 805.608 18.7943 805.978 18.4297C806.348 18.0651 806.533 17.5417 806.533 16.8594C806.533 16.1979 806.33 15.6901 805.923 15.3359C805.517 14.9818 804.931 14.7995 804.166 14.7891H803.08V13.6094Z" fill="#02133C"/>
<path d="M5 42.5H851" stroke="#D5D5D5" stroke-linecap="square"/>
<path d="M167 42.248H367" stroke="#C40B0B" stroke-width="4" stroke-linecap="square"/>
<circle cx="340" cy="3" r="3" fill="#21C613"/>
<circle cx="578" cy="3" r="3" fill="#21C613"/>
<circle cx="816" cy="3" r="3" fill="#D5D5D5"/>
</g>
<defs>
<filter id="filter0_d" x="0.5" y="0" width="855" height="52.248" filterUnits="userSpaceOnUse" color-interpolation-filters="sRGB">
<feFlood flood-opacity="0" result="BackgroundImageFix"/>
<feColorMatrix in="SourceAlpha" type="matrix" values="0 0 0 0 0 0 0 0 0 0 0 0 0 0 0 0 0 0 127 0" result="hardAlpha"/>
<feOffset dy="4"/>
<feGaussianBlur stdDeviation="2"/>
<feComposite in2="hardAlpha" operator="out"/>
<feColorMatrix type="matrix" values="0 0 0 0 0 0 0 0 0 0 0 0 0 0 0 0 0 0 0.25 0"/>
<feBlend mode="normal" in2="BackgroundImageFix" result="effect1_dropShadow"/>
<feBlend mode="normal" in="SourceGraphic" in2="effect1_dropShadow" result="shape"/>
</filter>
</defs>
</svg>
